<svg xmlns="http://www.w3.org/2000/svg" xmlns:xlink="http://www.w3.org/1999/xlink" width="264" zoomAndPan="magnify" viewBox="0 0 198 156.749997" height="209" preserveAspectRatio="xMidYMid meet" version="1.0"><defs><clipPath id="99f1858c42"><path d="M 0.15625 0.164062 L 197.839844 0.164062 L 197.839844 156.5 L 0.15625 156.5 Z M 0.15625 0.164062 " clip-rule="nonzero"/></clipPath></defs><g clip-path="url(#99f1858c42)"><path fill="#4d2e1a" d="M 146.3125 0.164062 C 147.636719 3.601562 149.496094 8.996094 150.738281 15.851562 C 152.539062 25.628906 151.707031 30.726562 155.34375 33.925781 C 157.277344 35.644531 160.972656 37.246094 168.71875 35.585938 C 164.6875 39.140625 154.730469 48.941406 153.503906 63.441406 C 153.167969 67.433594 152.753906 72.3125 155.539062 76.914062 C 159.136719 82.878906 165.21875 83.671875 178.316406 88.867188 C 183.019531 90.742188 189.796875 93.628906 197.777344 97.855469 C 192.226562 97.578125 183.199219 97.777344 172.867188 101.273438 C 164.964844 103.941406 158.542969 106.113281 155.164062 112.160156 C 149.316406 122.589844 157.359375 136.023438 158.207031 137.40625 C 155.480469 135.765625 137.503906 125.433594 115.871094 132.425781 C 97.339844 138.433594 88.707031 153.089844 86.8125 156.488281 C 85.921875 154.238281 84.5 150.5625 82.761719 146 C 78.910156 135.824219 78.652344 134.699219 77.128906 132.78125 C 74.027344 128.910156 68.242188 125.039062 61.070312 125.175781 C 52.355469 125.355469 47.003906 131.378906 46.132812 132.40625 C 45.957031 130.394531 45.601562 127.449219 44.851562 123.914062 C 43.40625 117.175781 42.675781 113.816406 40.246094 112.472656 C 38.429688 111.46875 36.511719 111.980469 28.632812 114.863281 C 23.730469 116.664062 19.464844 118.300781 15.988281 119.664062 C 17.628906 116.878906 19.839844 113.046875 22.347656 108.40625 C 26.636719 100.523438 27.167969 98.863281 26.773438 96.964844 C 26.140625 93.90625 23.535156 92.34375 15.890625 87.742188 C 13.261719 86.199219 8.324219 83.238281 0.222656 78.335938 C 5.101562 78.101562 12.3125 77.410156 20.828125 75.253906 C 29.796875 72.984375 34.28125 71.835938 38.210938 68.339844 C 46.054688 61.386719 48.425781 49.238281 46.152344 40.1875 C 45.265625 36.632812 44.375 36.476562 38.585938 24.878906 C 35.566406 18.832031 33.253906 13.777344 31.773438 10.398438 C 35.566406 13.65625 41.414062 18.121094 49.277344 22.171875 C 57.355469 26.339844 63.972656 29.757812 71.617188 29.621094 C 87.304688 29.363281 98.109375 14.289062 100.402344 10.953125 C 102.675781 12.710938 106.113281 15.179688 110.558594 17.6875 C 115.929688 20.710938 118.675781 22.230469 121.621094 22.113281 C 123.535156 22.035156 126.320312 21.382812 134.164062 13.816406 C 137.386719 10.695312 141.710938 6.171875 146.3125 0.164062 Z M 146.3125 0.164062 " fill-opacity="1" fill-rule="nonzero"/></g><path fill="#000000" d="M 115.773438 53.484375 C 117.15625 53.503906 118.558594 53.128906 119.902344 53.386719 C 121.796875 53.761719 123.21875 55.300781 124.503906 56.746094 C 125.730469 58.148438 126.972656 59.53125 128.199219 60.933594 C 129.085938 61.941406 130.035156 63.046875 130.195312 64.390625 C 130.390625 65.988281 129.421875 67.609375 129.757812 69.191406 C 130.054688 70.554688 131.222656 71.5 132.207031 72.507812 C 133.175781 73.496094 134.066406 74.917969 133.570312 76.222656 C 133.277344 77.03125 132.523438 77.585938 132.089844 78.335938 C 130.273438 81.519531 135.230469 85.566406 133.492188 88.808594 C 132.367188 90.921875 129.027344 91.117188 128.101562 93.3125 C 127.804688 94.003906 127.824219 94.773438 127.746094 95.503906 C 127.410156 98.605469 125.335938 101.449219 122.488281 102.734375 C 121.660156 103.109375 120.75 103.367188 120 103.878906 C 118.734375 104.769531 118.082031 106.269531 117.332031 107.613281 C 116.582031 108.957031 115.476562 110.339844 113.933594 110.519531 C 111.445312 110.816406 109.390625 107.871094 106.921875 108.265625 C 104.214844 108.703125 103.484375 112.613281 100.917969 113.5625 C 99.277344 114.171875 97.4375 113.324219 96.035156 112.257812 C 94.632812 111.191406 93.351562 109.867188 91.691406 109.332031 C 89.398438 108.582031 86.8125 109.472656 84.539062 108.679688 C 81.0625 107.457031 79.875 102.992188 76.773438 100.976562 C 75.371094 100.066406 73.574219 99.632812 72.585938 98.289062 C 71.363281 96.648438 71.777344 94.199219 70.53125 92.582031 C 69.78125 91.613281 68.578125 91.117188 67.6875 90.289062 C 66.796875 89.460938 66.34375 87.839844 67.292969 87.089844 C 67.707031 86.773438 68.242188 86.695312 68.695312 86.457031 C 69.960938 85.765625 70.078125 83.929688 69.464844 82.625 C 68.851562 81.320312 67.746094 80.332031 66.976562 79.109375 C 66.207031 77.902344 65.832031 76.203125 66.738281 75.078125 C 67.410156 74.246094 68.617188 73.929688 69.089844 72.984375 C 69.308594 72.546875 69.328125 72.035156 69.328125 71.5625 C 69.308594 68.753906 68.773438 65.574219 70.652344 63.5 C 71.796875 62.238281 73.554688 61.742188 74.800781 60.558594 C 76.0625 59.351562 76.578125 57.613281 77.289062 56.011719 C 77.980469 54.414062 79.066406 52.773438 80.765625 52.378906 C 81.753906 52.140625 82.820312 52.378906 83.828125 52.238281 C 85.804688 52.003906 87.34375 50.5 88.785156 49.136719 C 91.335938 46.726562 94.753906 44.316406 98.070312 45.445312 C 98.960938 45.742188 99.75 46.273438 100.601562 46.707031 C 102.082031 47.460938 103.742188 47.835938 105.402344 47.855469 C 106.980469 47.875 107.949219 47.242188 108.957031 48.585938 C 110.8125 51.09375 112.136719 53.445312 115.773438 53.484375 Z M 115.773438 53.484375 " fill-opacity="1" fill-rule="nonzero"/></svg>