<svg xmlns="http://www.w3.org/2000/svg" xmlns:xlink="http://www.w3.org/1999/xlink" width="40" zoomAndPan="magnify" viewBox="0 0 30 389.999986" height="520" preserveAspectRatio="xMidYMid meet" version="1.0"><defs><clipPath id="3eed8ea405"><path d="M 5.476562 0.140625 L 24.53125 0.140625 L 24.53125 388.464844 L 5.476562 388.464844 Z M 5.476562 0.140625 " clip-rule="nonzero"/></clipPath><clipPath id="db98f0e148"><path d="M 0.476562 0.140625 L 19.53125 0.140625 L 19.53125 388.464844 L 0.476562 388.464844 Z M 0.476562 0.140625 " clip-rule="nonzero"/></clipPath><clipPath id="10f54f0a99"><rect x="0" width="20" y="0" height="389"/></clipPath><clipPath id="6f18893269"><path d="M 5.476562 0.15625 L 24.226562 0.15625 L 24.226562 388.449219 L 5.476562 388.449219 Z M 5.476562 0.15625 " clip-rule="nonzero"/></clipPath></defs><rect x="-3" width="36" fill="#ffffff" y="-38.999999" height="467.999983" fill-opacity="1"/><rect x="-3" width="36" fill="#ffffff" y="-38.999999" height="467.999983" fill-opacity="1"/><g clip-path="url(#3eed8ea405)"><g transform="matrix(1, 0, 0, 1, 5, 0)"><g clip-path="url(#10f54f0a99)"><g clip-path="url(#db98f0e148)"><path fill="#51342a" d="M 0.476562 0.140625 L 19.53125 0.140625 L 19.53125 388.484375 L 0.476562 388.484375 Z M 0.476562 0.140625 " fill-opacity="1" fill-rule="nonzero"/></g></g></g></g><g clip-path="url(#6f18893269)"><path fill="#ceb290" d="M 36.53125 65.101562 L 36.53125 137.101562 L 12.53125 137.101562 L 12.53125 65.101562 Z M 36.53125 149.101562 L 36.53125 221.101562 L 12.53125 221.101562 L 12.53125 149.101562 Z M 36.53125 233.101562 L 36.53125 305.101562 L 12.53125 305.101562 L 12.53125 233.101562 Z M 36.53125 317.101562 L 36.53125 400.449219 L 23.878906 400.449219 L 23.878906 376.449219 L 24.53125 376.449219 L 24.53125 388.449219 L 12.53125 388.449219 L 12.53125 317.101562 Z M 11.878906 400.449219 L -6.523438 400.449219 L -6.523438 322.851562 L 17.476562 322.851562 L 17.476562 388.449219 L 5.476562 388.449219 L 5.476562 376.449219 L 11.878906 376.449219 Z M -6.523438 310.851562 L -6.523438 238.851562 L 17.476562 238.851562 L 17.476562 310.851562 Z M -6.523438 226.851562 L -6.523438 154.851562 L 17.476562 154.851562 L 17.476562 226.851562 Z M -6.523438 142.851562 L -6.523438 70.851562 L 17.476562 70.851562 L 17.476562 142.851562 Z M -6.523438 58.851562 L -6.523438 -11.84375 L 36.53125 -11.84375 L 36.53125 53.101562 L 12.53125 53.101562 L 12.53125 0.15625 L 24.53125 0.15625 L 24.53125 12.15625 L 5.476562 12.15625 L 5.476562 0.15625 L 17.476562 0.15625 L 17.476562 58.851562 Z M -6.523438 58.851562 " fill-opacity="1" fill-rule="nonzero"/></g></svg>