<?xml version="1.0" encoding="UTF-8"?>
<svg id="Warstwa_1" data-name="Warstwa 1" xmlns="http://www.w3.org/2000/svg" xmlns:xlink="http://www.w3.org/1999/xlink" viewBox="0 0 4546.93 1022.17">
  <defs>
    <style>
      .cls-1 {
        clip-path: url(#clippath-21);
      }

      .cls-2 {
        clip-path: url(#clippath-6);
      }

      .cls-3 {
        clip-path: url(#clippath-7);
      }

      .cls-4 {
        clip-path: url(#clippath-17);
      }

      .cls-5 {
        clip-path: url(#clippath-15);
      }

      .cls-6 {
        clip-path: url(#clippath-18);
      }

      .cls-7 {
        clip-path: url(#clippath-4);
      }

      .cls-8 {
        clip-path: url(#clippath-22);
      }

      .cls-9 {
        clip-path: url(#clippath-23);
      }

      .cls-10, .cls-11 {
        fill: #51342a;
      }

      .cls-12 {
        clip-path: url(#clippath-9);
      }

      .cls-13 {
        clip-path: url(#clippath-10);
      }

      .cls-14 {
        clip-path: url(#clippath-25);
      }

      .cls-15 {
        fill: #86573a;
      }

      .cls-15, .cls-11 {
        fill-rule: evenodd;
      }

      .cls-16 {
        clip-path: url(#clippath-11);
      }

      .cls-17 {
        fill: none;
      }

      .cls-18 {
        clip-path: url(#clippath-1);
      }

      .cls-19 {
        clip-path: url(#clippath-5);
      }

      .cls-20 {
        clip-path: url(#clippath-20);
      }

      .cls-21 {
        clip-path: url(#clippath-8);
      }

      .cls-22 {
        clip-path: url(#clippath-3);
      }

      .cls-23 {
        clip-path: url(#clippath-12);
      }

      .cls-24 {
        clip-path: url(#clippath-14);
      }

      .cls-25 {
        clip-path: url(#clippath-19);
      }

      .cls-26 {
        clip-path: url(#clippath-16);
      }

      .cls-27 {
        clip-path: url(#clippath-2);
      }

      .cls-28 {
        clip-path: url(#clippath-13);
      }

      .cls-29 {
        clip-path: url(#clippath-24);
      }

      .cls-30 {
        clip-path: url(#clippath);
      }
    </style>
    <clipPath id="clippath">
      <rect class="cls-17" x="626.49" y="289.25" width="3490.04" height="635.33"/>
    </clipPath>
    <clipPath id="clippath-1">
      <rect class="cls-17" x="550.46" y="236.11" width="3486.7" height="634.47"/>
    </clipPath>
    <clipPath id="clippath-2">
      <rect class="cls-17" x="550.46" y="236.66" width="1239.38" height="125.92"/>
    </clipPath>
    <clipPath id="clippath-3">
      <path class="cls-17" d="M713.72,236.66h3247.13s68.03,1.22,74.83,18.28-31.75,64.6-36.29,76.79c-4.53,12.19-45.35,35.35-40.81,45.1s43.09,20.72,43.09,20.72c0,0-56.69,19.51-83.91,29.26-27.21,9.75-104.3,31.69-104.3,31.69l156.45,15.84s22.67,42.66,13.6,58.51c-9.07,15.84-40.81,51.19-36.28,59.72,4.53,8.53-31.74,69.47-49.89,69.47s-174.6,8.53-174.6,8.53l115.64,31.69,167.81,41.44-6.81,59.72-49.88,67.04H609.42l-49.89-109.7,115.65-43.88,74.82-19.5-158.72-24.38,9.07-110.92,188.21-29.26-49.89-9.75-188.21-88.98,58.96-107.26,13.6-84.1,90.69-6.09h0Z"/>
    </clipPath>
    <clipPath id="clippath-4">
      <rect class="cls-17" x="550.46" y="236.66" width="1013.65" height="95.26"/>
    </clipPath>
    <clipPath id="clippath-5">
      <path class="cls-17" d="M713.72,236.66h3247.13s68.03,1.22,74.83,18.28-31.75,64.6-36.29,76.79c-4.53,12.19-45.35,35.35-40.81,45.1s43.09,20.72,43.09,20.72c0,0-56.69,19.51-83.91,29.26-27.21,9.75-104.3,31.69-104.3,31.69l156.45,15.84s22.67,42.66,13.6,58.51c-9.07,15.84-40.81,51.19-36.28,59.72,4.53,8.53-31.74,69.47-49.89,69.47s-174.6,8.53-174.6,8.53l115.64,31.69,167.81,41.44-6.81,59.72-49.88,67.04H609.42l-49.89-109.7,115.65-43.88,74.82-19.5-158.72-24.38,9.07-110.92,188.21-29.26-49.89-9.75-188.21-88.98,58.96-107.26,13.6-84.1,90.69-6.09h0Z"/>
    </clipPath>
    <clipPath id="clippath-6">
      <rect class="cls-17" x="651.29" y="236.66" width="692.05" height="67.26"/>
    </clipPath>
    <clipPath id="clippath-7">
      <path class="cls-17" d="M713.72,236.66h3247.13s68.03,1.22,74.83,18.28-31.75,64.6-36.29,76.79c-4.53,12.19-45.35,35.35-40.81,45.1s43.09,20.72,43.09,20.72c0,0-56.69,19.51-83.91,29.26-27.21,9.75-104.3,31.69-104.3,31.69l156.45,15.84s22.67,42.66,13.6,58.51c-9.07,15.84-40.81,51.19-36.28,59.72,4.53,8.53-31.74,69.47-49.89,69.47s-174.6,8.53-174.6,8.53l115.64,31.69,167.81,41.44-6.81,59.72-49.88,67.04H609.42l-49.89-109.7,115.65-43.88,74.82-19.5-158.72-24.38,9.07-110.92,188.21-29.26-49.89-9.75-188.21-88.98,58.96-107.26,13.6-84.1,90.69-6.09h0Z"/>
    </clipPath>
    <clipPath id="clippath-8">
      <rect class="cls-17" x="819.97" y="236.66" width="302.62" height="41.92"/>
    </clipPath>
    <clipPath id="clippath-9">
      <path class="cls-17" d="M713.72,236.66h3247.13s68.03,1.22,74.83,18.28-31.75,64.6-36.29,76.79c-4.53,12.19-45.35,35.35-40.81,45.1s43.09,20.72,43.09,20.72c0,0-56.69,19.51-83.91,29.26-27.21,9.75-104.3,31.69-104.3,31.69l156.45,15.84s22.67,42.66,13.6,58.51c-9.07,15.84-40.81,51.19-36.28,59.72,4.53,8.53-31.74,69.47-49.89,69.47s-174.6,8.53-174.6,8.53l115.64,31.69,167.81,41.44-6.81,59.72-49.88,67.04H609.42l-49.89-109.7,115.65-43.88,74.82-19.5-158.72-24.38,9.07-110.92,188.21-29.26-49.89-9.75-188.21-88.98,58.96-107.26,13.6-84.1,90.69-6.09h0Z"/>
    </clipPath>
    <clipPath id="clippath-10">
      <rect class="cls-17" x="550.46" y="236.66" width="3486.23" height="277.92"/>
    </clipPath>
    <clipPath id="clippath-11">
      <path class="cls-17" d="M713.72,236.66h3247.13s68.03,1.22,74.83,18.28-31.75,64.6-36.29,76.79c-4.53,12.19-45.35,35.35-40.81,45.1s43.09,20.72,43.09,20.72c0,0-56.69,19.51-83.91,29.26-27.21,9.75-104.3,31.69-104.3,31.69l156.45,15.84s22.67,42.66,13.6,58.51c-9.07,15.84-40.81,51.19-36.28,59.72,4.53,8.53-31.74,69.47-49.89,69.47s-174.6,8.53-174.6,8.53l115.64,31.69,167.81,41.44-6.81,59.72-49.88,67.04H609.42l-49.89-109.7,115.65-43.88,74.82-19.5-158.72-24.38,9.07-110.92,188.21-29.26-49.89-9.75-188.21-88.98,58.96-107.26,13.6-84.1,90.69-6.09h0Z"/>
    </clipPath>
    <clipPath id="clippath-12">
      <rect class="cls-17" x="2263.61" y="594.58" width="1456.04" height="173.33"/>
    </clipPath>
    <clipPath id="clippath-13">
      <path class="cls-17" d="M713.72,236.66h3247.13s68.03,1.22,74.83,18.28-31.75,64.6-36.29,76.79c-4.53,12.19-45.35,35.35-40.81,45.1s43.09,20.72,43.09,20.72c0,0-56.69,19.51-83.91,29.26-27.21,9.75-104.3,31.69-104.3,31.69l156.45,15.84s22.67,42.66,13.6,58.51c-9.07,15.84-40.81,51.19-36.28,59.72,4.53,8.53-31.74,69.47-49.89,69.47s-174.6,8.53-174.6,8.53l115.64,31.69,167.81,41.44-6.81,59.72-49.88,67.04H609.42l-49.89-109.7,115.65-43.88,74.82-19.5-158.72-24.38,9.07-110.92,188.21-29.26-49.89-9.75-188.21-88.98,58.96-107.26,13.6-84.1,90.69-6.09h0Z"/>
    </clipPath>
    <clipPath id="clippath-14">
      <rect class="cls-17" x="2422.36" y="618.58" width="1071.57" height="124"/>
    </clipPath>
    <clipPath id="clippath-15">
      <path class="cls-17" d="M713.72,236.66h3247.13s68.03,1.22,74.83,18.28-31.75,64.6-36.29,76.79c-4.53,12.19-45.35,35.35-40.81,45.1s43.09,20.72,43.09,20.72c0,0-56.69,19.51-83.91,29.26-27.21,9.75-104.3,31.69-104.3,31.69l156.45,15.84s22.67,42.66,13.6,58.51c-9.07,15.84-40.81,51.19-36.28,59.72,4.53,8.53-31.74,69.47-49.89,69.47s-174.6,8.53-174.6,8.53l115.64,31.69,167.81,41.44-6.81,59.72-49.88,67.04H609.42l-49.89-109.7,115.65-43.88,74.82-19.5-158.72-24.38,9.07-110.92,188.21-29.26-49.89-9.75-188.21-88.98,58.96-107.26,13.6-84.1,90.69-6.09h0Z"/>
    </clipPath>
    <clipPath id="clippath-16">
      <rect class="cls-17" x="2581.11" y="638.58" width="682.13" height="80"/>
    </clipPath>
    <clipPath id="clippath-17">
      <path class="cls-17" d="M713.72,236.66h3247.13s68.03,1.22,74.83,18.28-31.75,64.6-36.29,76.79c-4.53,12.19-45.35,35.35-40.81,45.1s43.09,20.72,43.09,20.72c0,0-56.69,19.51-83.91,29.26-27.21,9.75-104.3,31.69-104.3,31.69l156.45,15.84s22.67,42.66,13.6,58.51c-9.07,15.84-40.81,51.19-36.28,59.72,4.53,8.53-31.74,69.47-49.89,69.47s-174.6,8.53-174.6,8.53l115.64,31.69,167.81,41.44-6.81,59.72-49.88,67.04H609.42l-49.89-109.7,115.65-43.88,74.82-19.5-158.72-24.38,9.07-110.92,188.21-29.26-49.89-9.75-188.21-88.98,58.96-107.26,13.6-84.1,90.69-6.09h0Z"/>
    </clipPath>
    <clipPath id="clippath-18">
      <rect class="cls-17" x="2737.38" y="655.92" width="324.94" height="37.33"/>
    </clipPath>
    <clipPath id="clippath-19">
      <path class="cls-17" d="M713.72,236.66h3247.13s68.03,1.22,74.83,18.28-31.75,64.6-36.29,76.79c-4.53,12.19-45.35,35.35-40.81,45.1s43.09,20.72,43.09,20.72c0,0-56.69,19.51-83.91,29.26-27.21,9.75-104.3,31.69-104.3,31.69l156.45,15.84s22.67,42.66,13.6,58.51c-9.07,15.84-40.81,51.19-36.28,59.72,4.53,8.53-31.74,69.47-49.89,69.47s-174.6,8.53-174.6,8.53l115.64,31.69,167.81,41.44-6.81,59.72-49.88,67.04H609.42l-49.89-109.7,115.65-43.88,74.82-19.5-158.72-24.38,9.07-110.92,188.21-29.26-49.89-9.75-188.21-88.98,58.96-107.26,13.6-84.1,90.69-6.09h0Z"/>
    </clipPath>
    <clipPath id="clippath-20">
      <rect class="cls-17" x="550.46" y="575.92" width="3486.23" height="294.59"/>
    </clipPath>
    <clipPath id="clippath-21">
      <path class="cls-17" d="M713.72,236.66h3247.13s68.03,1.22,74.83,18.28-31.75,64.6-36.29,76.79c-4.53,12.19-45.35,35.35-40.81,45.1s43.09,20.72,43.09,20.72c0,0-56.69,19.51-83.91,29.26-27.21,9.75-104.3,31.69-104.3,31.69l156.45,15.84s22.67,42.66,13.6,58.51c-9.07,15.84-40.81,51.19-36.28,59.72,4.53,8.53-31.74,69.47-49.89,69.47s-174.6,8.53-174.6,8.53l115.64,31.69,167.81,41.44-6.81,59.72-49.88,67.04H609.42l-49.89-109.7,115.65-43.88,74.82-19.5-158.72-24.38,9.07-110.92,188.21-29.26-49.89-9.75-188.21-88.98,58.96-107.26,13.6-84.1,90.69-6.09h0Z"/>
    </clipPath>
    <clipPath id="clippath-22">
      <rect class="cls-17" x="550.46" y="485.25" width="3486.23" height="86.67"/>
    </clipPath>
    <clipPath id="clippath-23">
      <path class="cls-17" d="M713.72,236.66h3247.13s68.03,1.22,74.83,18.28-31.75,64.6-36.29,76.79c-4.53,12.19-45.35,35.35-40.81,45.1s43.09,20.72,43.09,20.72c0,0-56.69,19.51-83.91,29.26-27.21,9.75-104.3,31.69-104.3,31.69l156.45,15.84s22.67,42.66,13.6,58.51c-9.07,15.84-40.81,51.19-36.28,59.72,4.53,8.53-31.74,69.47-49.89,69.47s-174.6,8.53-174.6,8.53l115.64,31.69,167.81,41.44-6.81,59.72-49.88,67.04H609.42l-49.89-109.7,115.65-43.88,74.82-19.5-158.72-24.38,9.07-110.92,188.21-29.26-49.89-9.75-188.21-88.98,58.96-107.26,13.6-84.1,90.69-6.09h0Z"/>
    </clipPath>
    <clipPath id="clippath-24">
      <rect class="cls-17" x="550.46" y="527.92" width="3486.23" height="118.67"/>
    </clipPath>
    <clipPath id="clippath-25">
      <path class="cls-17" d="M713.72,236.66h3247.13s68.03,1.22,74.83,18.28-31.75,64.6-36.29,76.79c-4.53,12.19-45.35,35.35-40.81,45.1s43.09,20.72,43.09,20.72c0,0-56.69,19.51-83.91,29.26-27.21,9.75-104.3,31.69-104.3,31.69l156.45,15.84s22.67,42.66,13.6,58.51c-9.07,15.84-40.81,51.19-36.28,59.72,4.53,8.53-31.74,69.47-49.89,69.47s-174.6,8.53-174.6,8.53l115.64,31.69,167.81,41.44-6.81,59.72-49.88,67.04H609.42l-49.89-109.7,115.65-43.88,74.82-19.5-158.72-24.38,9.07-110.92,188.21-29.26-49.89-9.75-188.21-88.98,58.96-107.26,13.6-84.1,90.69-6.09h0Z"/>
    </clipPath>
  </defs>
  <g class="cls-30">
    <path class="cls-11" d="M791.86,290.22h3247.14s68.03,1.22,74.83,18.28c6.81,17.06-31.74,64.6-36.28,76.79-4.53,12.19-45.36,35.35-40.82,45.1,4.54,9.75,43.09,20.72,43.09,20.72,0,0-56.69,19.51-83.9,29.26s-104.31,31.69-104.31,31.69l156.46,15.85s22.66,42.66,13.6,58.51c-9.07,15.84-40.81,51.19-36.28,59.72,4.53,8.53-31.75,69.47-49.89,69.47s-174.6,8.54-174.6,8.54l115.64,31.69,167.8,41.44-6.8,59.72-49.89,67.04H687.55l-49.88-109.7,115.64-43.88,74.83-19.5-158.73-24.38,9.07-110.92,188.21-29.26-49.88-9.75-188.21-88.98,58.95-107.26,13.61-84.1,90.69-6.09Z"/>
  </g>
  <g class="cls-18">
    <path class="cls-15" d="M713.72,236.66h3247.14s68.03,1.22,74.83,18.28c6.8,17.06-31.75,64.6-36.29,76.79-4.53,12.19-45.35,35.35-40.81,45.1s43.09,20.72,43.09,20.72c0,0-56.69,19.51-83.91,29.26-27.21,9.75-104.3,31.69-104.3,31.69l156.45,15.84s22.67,42.66,13.6,58.51c-9.07,15.84-40.81,51.19-36.28,59.72,4.53,8.53-31.74,69.47-49.89,69.47s-174.6,8.53-174.6,8.53l115.64,31.69,167.81,41.44-6.81,59.72-49.88,67.04H609.42l-49.89-109.7,115.65-43.88,74.82-19.5-158.72-24.38,9.07-110.92,188.21-29.26-49.89-9.75-188.21-88.98,58.96-107.26,13.6-84.1,90.69-6.09h0Z"/>
  </g>
  <g class="cls-27">
    <g class="cls-22">
      <path class="cls-10" d="M1151.24,145.51c52.17,5.32,639.61,104.99,637.81,109.97-15.01,41.63-789.7,118.53-930.13,105.48-2.57-.24-715.38-92.56-470.01-143.51,190.67-39.59,541.55-90.67,742.58-73.61l19.75,1.67ZM933.57,149.04c-62.12,3.88-693.08,70.91-563.83,104.12,549.55,141.18,755.33,118.93,1309.55,24.61,239.89-40.82-54.53-31.76-388.13-103.11-117.61-25.15-232.62-30.92-357.59-25.63Z"/>
    </g>
  </g>
  <g class="cls-7">
    <g class="cls-19">
      <path class="cls-10" d="M1098.2,173.21c58.5,4.59,495.5,72.33,462.03,86.34-117.52,49.22-599.92,84.96-730.77,66.71-75.66-10.55-498.72-68.02-245.39-110.31,166.23-27.76,338.44-53.36,514.14-42.74ZM945.06,180.1c-58.28,2.42-537.44,38.4-402.31,74.55,387.16,103.61,619.78,81.73,1011.49-2.04,2.09-.45-307.22-52.82-398.91-65.6-71.46-9.96-137.55-9.55-210.27-6.91Z"/>
    </g>
  </g>
  <g class="cls-2">
    <g class="cls-3">
      <path class="cls-10" d="M988.99,201.96c1.51-.06,505.42,28.63,305.24,65.29-201.36,36.88-452.53,65.95-632.43-17.18-66.08-30.54,284.96-46.04,327.18-48.1ZM948.65,211.6c-195.36,5.01-454.25,25.06-69.93,81.23,53.73,7.86,606.71-25.84,391.04-49.56-175.78-19.33-115.17-38.23-321.12-31.67Z"/>
    </g>
  </g>
  <g class="cls-21">
    <g class="cls-12">
      <path class="cls-10" d="M976.71,231.01c115.53-21.15,263.75,40.65-9.76,47.26-34.32.83-296.04-49.36-19.39-42.85,7.51.17,22-3.03,29.15-4.41ZM947.14,243.23c-230.45-10.29-17.53,46.42,158.36,5.51-162.29-16.42-44.45-6.98-158.36-5.51Z"/>
    </g>
  </g>
  <g class="cls-13">
    <g class="cls-16">
      <path class="cls-10" d="M4298.64,109.65c-523.2,57.95-479.28,197.72-1199.26,62.58-517.32-97.1-821.88-88.41-1341.5-120.15C1084.87,10.99,726.24,12.84,11.81,17.36c0-37.99,1163.52-3.93,1426.47,10.86,442.44,24.89,1210.88,46.56,1574.02,118.88,925.89,184.39,785.24-43.53,1523.02-51.36,0,14.02-195.1,11-236.68,13.92ZM649.11,55.79c510.09,1.93,1009.97,86.67,1591.47,82.13,1221.89-9.55,627.88,302.04,1993.68,49.94,92.9-17.15,554.79-49.48,135.86-10.3-485.18,45.38-769.49,206.41-1281.55,55.58-419.22-123.48-1024.14-73.97-1547.77-112.01-511.41-37.15-636.89-60.34-1149.19-46.37-504.26,13.75-530.42,6.61-.88-7.79,88.45-2.41,170.78-7.1,258.38-11.2ZM3760.36,316.41c-793.75,59.84-789.03-85.89-1517.65-115.98-460.67-19.03-869.36-63.72-1306.25-81.28C764.01,112.21,11.81,215.81,11.81,200.35c964.02-93.17,664.38-120.99,1665.63-34.64,568.01,48.99,657.14-4.47,1250.03,108.97,531.18,101.64,1070.85,25.83,1607.85-57.94,0,28.59-708.17,93.72-774.97,99.67ZM104.17,255.59c652.58,49.26,332.72,234.51,1611.07,63.52,908.45-121.52,809.95-36.32,1621.24,34.06,118.82,10.31,1377.11-35.36,1173.49-20.07-366.43,27.52-1040.66,49.35-1388.57,2.41-1248.41-168.44-1089.59,28.79-2102.54,57.45-468.45,13.26-666.82-140.07-1007.06-130.21,0-15.45,68.83-8.23,92.36-7.15ZM4430.57,378.52c-704.01,44.14-1147.21,37.93-1829.45-45.03-174.46-21.2-780.34,32.7-972.88,61.89-455.98,69.1-923.98,40.66-1368.95-31.83-47.79-7.79-455.94-46.31-113.79-21.26,322.3,23.59,323.59,72.73,803.48,78.59,563.03,6.87,415.25-11.29,910.5-68.78,116.41-13.52,712.12-32.65,795.51-18.56,589.62,99.62,1229.21,58.4,1832.71,34.17,142.82-5.73-26.17,8.94-57.13,10.81ZM512.58,433.48c177.76,37.35,916.3,51.59,1177.82-3.03,184.1-38.45,868.42-92.77,1068.2-37.28,225.66,62.69,1378.03,34.65,1702.72,16.5,260.69-14.57-284.96,29.14-377.79,28.54-311.14-1.97-1103.88,21.77-1370.29-49.1-177.41-47.19-874.38,28.15-1096.08,62.66-311.27,48.44-896.8,23.98-1213.44-31.68-55.89-9.83-688.72-63.61-249.51-36.82,134.08,8.18,234.73,23.77,358.37,50.2ZM4378.34,462.85c-562.36,10.23-1333.79,38.92-1873.4-15.69-177.57-17.96-1007.38,104.98-1555.49,53.68-349.44-32.71-616.16,1.41-937.63-16.67,0-14.05,819.42-2.32,940.05,8.97,607.86,56.89,993.49-46.59,1536.06-54.18,262.64-3.67,659.33,35.98,996.36,34.34,151.32-.74,1051.04-32.09,1051.04-13.25-52.34.85-104.66,1.82-156.98,2.79Z"/>
    </g>
  </g>
  <g class="cls-23">
    <g class="cls-28">
      <path class="cls-10" d="M3080.15,601.93c52.18,5.32,639.61,104.99,637.82,109.96-10.09,28.02-969.25,66.35-1118.86,52.17-713.6-67.66-103.53-130.9,191.61-160.93,98.83-10.05,190.49-9.59,289.43-1.2ZM2862.5,605.46c-57.81,3.61-712.77,70.73-556.87,105.48,401.9,89.59,812.1,34.16,1229.65,17.87,406.89-15.87-39.36-38.73-315.2-97.73-117.62-25.16-232.63-30.92-357.59-25.63Z"/>
    </g>
  </g>
  <g class="cls-24">
    <g class="cls-5">
      <path class="cls-10" d="M3026.97,620.72c58.47,5.96,486.21,74.71,464.76,86.57-47.41,26.2-745.86,42.9-853.62,30.8-617.39-69.33,286.81-126.03,388.85-117.36ZM2867.14,625.37c-228.36,14.25-748.65,75.33-133.61,113.23,17.79,1.1,972.38-16.26,684.08-45.55-232.26-23.6-318.71-77.51-550.47-67.69Z"/>
    </g>
  </g>
  <g class="cls-26">
    <g class="cls-4">
      <path class="cls-10" d="M2973.77,639.51c74.44,7.59,461.04,58.33,196.15,67.63-41.25,1.45-614.28,35.3-586.84-21.8,11.13-23.17,309.22-52.33,390.69-45.83ZM2871.78,645.29c-489.19,30.56-240.65,78.57,150.8,59.3,307.73-15.15,312.23,4.28-4.73-51.19-49.05-8.58-95.08-10.28-146.07-8.11Z"/>
    </g>
  </g>
  <g class="cls-6">
    <g class="cls-25">
      <path class="cls-10" d="M2920.59,658.31c496.21,50.52-525.73,40.08-55.39-.2,18.97-1.63,36.47-1.41,55.39.2ZM2876.41,665.19c-356.6,22.37,390.86,28.42,37.94.48-13.28-1.05-24.64-1.05-37.94-.48Z"/>
    </g>
  </g>
  <g class="cls-20">
    <g class="cls-1">
      <path class="cls-10" d="M3576.84,649.96c-1095.16-164.63-833.43,11.68-1793.28,27.88-367.7,6.21-692.83-58.24-1117.46-62.81-42.18-.46-654.29-4.72-654.29-25.3,488.35,11.74,848.27,11.97,1333.46,60.96,921.15,93.02,1152-173.84,2081-31.76,425.17,65.02,661.03,57.56,1109.05,36.54,0,39.29-815.62,15.69-958.48-5.51ZM236.24,648.92c743.83-11.61,634.81,20.81,1209.69,62.84,349.37,25.54,519.75-37.8,905.35,31.71,610.44,110.04,1182.8-7.03,1852.92,1.74,153.96,2.02,569.6-1.63,131.03,7.11-416.79,8.3-533.07-5.47-989.36,32.59-408.3,34.06-723.89,25.97-1107.88-55.53,2.1.43-362.63-9.11-523.12-5.73-420.36,8.86-701.94-74.16-1225.57-70.29-2.54.02-802.49,1.84-341.71-3.28,29.55-.32,59.11-.72,88.66-1.18ZM4302.21,792.08c-648.96-25.88-991.55,49.84-1577.25,48.37-227.39-.57-528.06-53.61-854.34-59.97-371.49-7.24-1106.25-78.08-1432.55-50.64-139.56,11.74-767.51,18.13-193.46,2.89,434.37-11.53,278.09-34.44,728.36.19,535.16,41.17,999.69,25.51,1556.98,87.6,410.75,45.77,1113.53-60.26,1665.12-40.41,156.14,5.63,576.26,31,139.81,13.29l-32.67-1.32ZM212.11,783.07c553.74-20.94,571.9-28.2,1073.76,27.77,285.49,31.83,764.41-6.63,1191.43,35.84,450.02,44.76,1268.54-8.27,1796.84-2.07,862.28,10.12-671.92,11.1-844.74,17.23-659.4,23.41-1227.95-36.86-1885.84-37.08-414.25-.15-532.33-61.79-1070.93-43.43-27.48.94-460.81,25.22-460.81,9.36,66.77-2.53,133.54-5.08,200.3-7.62ZM3839.48,898.53c-570.67,8.76-947.52,48.11-1533.65-1.98-468.18-40.02-974.71-22.96-1460.91-59.22-347.42-25.91-501.48,29.41-833.1,61.4,0-19.5,609.07-82.2,740.65-75.32,303.99,15.9,383.95,25.11,700.41,29.18,752.93,9.68,1252.01,94.95,2041.8,47.91,118.41-7.05,1040.65-25.67,1040.65-3.51-232.35-1.57-463.51-1.22-695.84,1.55ZM98.19,935.73c440.04-17.18,412.39-83.2,869.97-30.82,371.47,42.53,1029.01-2.41,1508.92,31.71,697.1,49.57,1188.25,12.9,1866.87,14.25,75.64.15,349.34,13.51,62.23,8.33-639.87-11.53-1394.17,51.09-2047.02-24.86-382.85-44.54-957.83,27.19-1548.21-42.86-140.42-16.66-799.14,82.55-799.14,45.75,29.05-1.02,57.22-1.11,86.37-1.49ZM4311.26,995.86c-482.1,16.6-1035.6,41.05-1506.91,14.7-570.7-31.9-1094.44-4.49-1678.61-29.14-535.82-22.6-635.41-13.48-1113.93,17.85,0-34.59,749.73-38.69,783.92-37.76,570.23,15.52,895.55,29.46,1470.94,23.82,506.96-4.97,738,50.47,1315.81,20.45,123.68-6.43,952.84-38.93,952.84.57-81.97-8.02-140.47-14.23-224.06-10.49Z"/>
    </g>
  </g>
  <g class="cls-8">
    <g class="cls-9">
      <path class="cls-10" d="M279.36,487.35c592.78,15.83,995.49,81.13,1620.47,59.17,960.88-33.76,1336.8-59.43,2225.91,6.13,43.6,3.21,699.73,13.4,283.53,18.06-382.21,4.29-797.41-62.4-1292.76-52.45-932.39,18.75-1479.33,68.51-2385.96,1.99-120.36-8.83-1186.16-39.4-451.2-32.91Z"/>
    </g>
  </g>
  <g class="cls-29">
    <g class="cls-14">
      <path class="cls-10" d="M4037.1,623.66c-913.53-52.15-628.76-123.79-1700.79-46.79-469.15,33.7-467.71,108.85-975.13,44.17-431.44-54.99-912.24-83.44-1349.37-74.18,0-64.63,1322.67,62.81,1479.88,84.4,227.29,31.21,628.68-46.6,924.21-68.02,961.84-69.7,747.18-1.77,1571.73,49.82,84.44,5.28,925.9-2.06,361.59,11.9-108.88,2.69-203.35,2.77-312.12-1.31Z"/>
    </g>
  </g>
</svg>