<svg xmlns="http://www.w3.org/2000/svg" xmlns:xlink="http://www.w3.org/1999/xlink" width="1920" zoomAndPan="magnify" viewBox="0 0 1440 516.750002" height="689" preserveAspectRatio="xMidYMid meet" version="1.0"><defs><clipPath id="d09b128615"><path d="M 31 40 L 1438 40 L 1438 516.5 L 31 516.5 Z M 31 40 " clip-rule="nonzero"/></clipPath><clipPath id="0f7d2f7981"><path d="M 0.347656 0.148438 L 1406 0.148438 L 1406 476 L 0.347656 476 Z M 0.347656 0.148438 " clip-rule="nonzero"/></clipPath><clipPath id="4a41ca1450"><path d="M 0.347656 0.558594 L 500 0.558594 L 500 95 L 0.347656 95 Z M 0.347656 0.558594 " clip-rule="nonzero"/></clipPath><clipPath id="eb5f1aa710"><path d="M 66.167969 0.558594 L 1375.242188 0.558594 C 1375.242188 0.558594 1402.667969 1.472656 1405.410156 14.269531 C 1408.152344 27.066406 1392.609375 62.71875 1390.78125 71.859375 C 1388.953125 81.003906 1372.5 98.371094 1374.328125 105.683594 C 1376.15625 112.996094 1391.699219 121.226562 1391.699219 121.226562 C 1391.699219 121.226562 1368.84375 135.855469 1357.871094 143.167969 C 1346.902344 150.480469 1315.824219 166.933594 1315.824219 166.933594 L 1378.898438 178.816406 C 1378.898438 178.816406 1388.039062 210.8125 1384.382812 222.699219 C 1380.726562 234.582031 1367.929688 261.089844 1369.757812 267.492188 C 1371.585938 273.890625 1356.960938 319.597656 1349.644531 319.597656 C 1342.332031 319.597656 1279.253906 325.996094 1279.253906 325.996094 L 1325.875 349.765625 L 1393.527344 380.847656 L 1390.78125 425.640625 L 1370.671875 475.921875 L 24.117188 475.921875 L 4.003906 393.644531 L 50.628906 360.738281 L 80.792969 346.113281 L 16.804688 327.828125 L 20.460938 244.640625 L 96.335938 222.699219 L 76.222656 215.386719 L 0.347656 148.652344 L 24.117188 68.207031 L 29.601562 5.128906 L 66.164062 0.558594 Z M 66.167969 0.558594 " clip-rule="evenodd"/></clipPath><clipPath id="7df62ee019"><path d="M 0.347656 0.558594 L 409 0.558594 L 409 72 L 0.347656 72 Z M 0.347656 0.558594 " clip-rule="nonzero"/></clipPath><clipPath id="6d23cfae0c"><path d="M 66.167969 0.558594 L 1375.242188 0.558594 C 1375.242188 0.558594 1402.667969 1.472656 1405.410156 14.269531 C 1408.152344 27.066406 1392.609375 62.71875 1390.78125 71.859375 C 1388.953125 81.003906 1372.5 98.371094 1374.328125 105.683594 C 1376.15625 112.996094 1391.699219 121.226562 1391.699219 121.226562 C 1391.699219 121.226562 1368.84375 135.855469 1357.871094 143.167969 C 1346.902344 150.480469 1315.824219 166.933594 1315.824219 166.933594 L 1378.898438 178.816406 C 1378.898438 178.816406 1388.039062 210.8125 1384.382812 222.699219 C 1380.726562 234.582031 1367.929688 261.089844 1369.757812 267.492188 C 1371.585938 273.890625 1356.960938 319.597656 1349.644531 319.597656 C 1342.332031 319.597656 1279.253906 325.996094 1279.253906 325.996094 L 1325.875 349.765625 L 1393.527344 380.847656 L 1390.78125 425.640625 L 1370.671875 475.921875 L 24.117188 475.921875 L 4.003906 393.644531 L 50.628906 360.738281 L 80.792969 346.113281 L 16.804688 327.828125 L 20.460938 244.640625 L 96.335938 222.699219 L 76.222656 215.386719 L 0.347656 148.652344 L 24.117188 68.207031 L 29.601562 5.128906 L 66.164062 0.558594 Z M 66.167969 0.558594 " clip-rule="evenodd"/></clipPath><clipPath id="ce68a1cd05"><path d="M 41 0.558594 L 320 0.558594 L 320 51 L 41 51 Z M 41 0.558594 " clip-rule="nonzero"/></clipPath><clipPath id="71e2a986b2"><path d="M 66.167969 0.558594 L 1375.242188 0.558594 C 1375.242188 0.558594 1402.667969 1.472656 1405.410156 14.269531 C 1408.152344 27.066406 1392.609375 62.71875 1390.78125 71.859375 C 1388.953125 81.003906 1372.5 98.371094 1374.328125 105.683594 C 1376.15625 112.996094 1391.699219 121.226562 1391.699219 121.226562 C 1391.699219 121.226562 1368.84375 135.855469 1357.871094 143.167969 C 1346.902344 150.480469 1315.824219 166.933594 1315.824219 166.933594 L 1378.898438 178.816406 C 1378.898438 178.816406 1388.039062 210.8125 1384.382812 222.699219 C 1380.726562 234.582031 1367.929688 261.089844 1369.757812 267.492188 C 1371.585938 273.890625 1356.960938 319.597656 1349.644531 319.597656 C 1342.332031 319.597656 1279.253906 325.996094 1279.253906 325.996094 L 1325.875 349.765625 L 1393.527344 380.847656 L 1390.78125 425.640625 L 1370.671875 475.921875 L 24.117188 475.921875 L 4.003906 393.644531 L 50.628906 360.738281 L 80.792969 346.113281 L 16.804688 327.828125 L 20.460938 244.640625 L 96.335938 222.699219 L 76.222656 215.386719 L 0.347656 148.652344 L 24.117188 68.207031 L 29.601562 5.128906 L 66.164062 0.558594 Z M 66.167969 0.558594 " clip-rule="evenodd"/></clipPath><clipPath id="a55ca066a7"><path d="M 109 0.558594 L 231 0.558594 L 231 32 L 109 32 Z M 109 0.558594 " clip-rule="nonzero"/></clipPath><clipPath id="42163c5873"><path d="M 66.167969 0.558594 L 1375.242188 0.558594 C 1375.242188 0.558594 1402.667969 1.472656 1405.410156 14.269531 C 1408.152344 27.066406 1392.609375 62.71875 1390.78125 71.859375 C 1388.953125 81.003906 1372.5 98.371094 1374.328125 105.683594 C 1376.15625 112.996094 1391.699219 121.226562 1391.699219 121.226562 C 1391.699219 121.226562 1368.84375 135.855469 1357.871094 143.167969 C 1346.902344 150.480469 1315.824219 166.933594 1315.824219 166.933594 L 1378.898438 178.816406 C 1378.898438 178.816406 1388.039062 210.8125 1384.382812 222.699219 C 1380.726562 234.582031 1367.929688 261.089844 1369.757812 267.492188 C 1371.585938 273.890625 1356.960938 319.597656 1349.644531 319.597656 C 1342.332031 319.597656 1279.253906 325.996094 1279.253906 325.996094 L 1325.875 349.765625 L 1393.527344 380.847656 L 1390.78125 425.640625 L 1370.671875 475.921875 L 24.117188 475.921875 L 4.003906 393.644531 L 50.628906 360.738281 L 80.792969 346.113281 L 16.804688 327.828125 L 20.460938 244.640625 L 96.335938 222.699219 L 76.222656 215.386719 L 0.347656 148.652344 L 24.117188 68.207031 L 29.601562 5.128906 L 66.164062 0.558594 Z M 66.167969 0.558594 " clip-rule="evenodd"/></clipPath><clipPath id="ba23fe4246"><path d="M 0.347656 0.558594 L 1405.8125 0.558594 L 1405.8125 209 L 0.347656 209 Z M 0.347656 0.558594 " clip-rule="nonzero"/></clipPath><clipPath id="47cdb67c16"><path d="M 66.167969 0.558594 L 1375.242188 0.558594 C 1375.242188 0.558594 1402.667969 1.472656 1405.410156 14.269531 C 1408.152344 27.066406 1392.609375 62.71875 1390.78125 71.859375 C 1388.953125 81.003906 1372.5 98.371094 1374.328125 105.683594 C 1376.15625 112.996094 1391.699219 121.226562 1391.699219 121.226562 C 1391.699219 121.226562 1368.84375 135.855469 1357.871094 143.167969 C 1346.902344 150.480469 1315.824219 166.933594 1315.824219 166.933594 L 1378.898438 178.816406 C 1378.898438 178.816406 1388.039062 210.8125 1384.382812 222.699219 C 1380.726562 234.582031 1367.929688 261.089844 1369.757812 267.492188 C 1371.585938 273.890625 1356.960938 319.597656 1349.644531 319.597656 C 1342.332031 319.597656 1279.253906 325.996094 1279.253906 325.996094 L 1325.875 349.765625 L 1393.527344 380.847656 L 1390.78125 425.640625 L 1370.671875 475.921875 L 24.117188 475.921875 L 4.003906 393.644531 L 50.628906 360.738281 L 80.792969 346.113281 L 16.804688 327.828125 L 20.460938 244.640625 L 96.335938 222.699219 L 76.222656 215.386719 L 0.347656 148.652344 L 24.117188 68.207031 L 29.601562 5.128906 L 66.164062 0.558594 Z M 66.167969 0.558594 " clip-rule="evenodd"/></clipPath><clipPath id="19e8c81add"><path d="M 691 269 L 1278 269 L 1278 399 L 691 399 Z M 691 269 " clip-rule="nonzero"/></clipPath><clipPath id="a80207e7b6"><path d="M 66.167969 0.558594 L 1375.242188 0.558594 C 1375.242188 0.558594 1402.667969 1.472656 1405.410156 14.269531 C 1408.152344 27.066406 1392.609375 62.71875 1390.78125 71.859375 C 1388.953125 81.003906 1372.5 98.371094 1374.328125 105.683594 C 1376.15625 112.996094 1391.699219 121.226562 1391.699219 121.226562 C 1391.699219 121.226562 1368.84375 135.855469 1357.871094 143.167969 C 1346.902344 150.480469 1315.824219 166.933594 1315.824219 166.933594 L 1378.898438 178.816406 C 1378.898438 178.816406 1388.039062 210.8125 1384.382812 222.699219 C 1380.726562 234.582031 1367.929688 261.089844 1369.757812 267.492188 C 1371.585938 273.890625 1356.960938 319.597656 1349.644531 319.597656 C 1342.332031 319.597656 1279.253906 325.996094 1279.253906 325.996094 L 1325.875 349.765625 L 1393.527344 380.847656 L 1390.78125 425.640625 L 1370.671875 475.921875 L 24.117188 475.921875 L 4.003906 393.644531 L 50.628906 360.738281 L 80.792969 346.113281 L 16.804688 327.828125 L 20.460938 244.640625 L 96.335938 222.699219 L 76.222656 215.386719 L 0.347656 148.652344 L 24.117188 68.207031 L 29.601562 5.128906 L 66.164062 0.558594 Z M 66.167969 0.558594 " clip-rule="evenodd"/></clipPath><clipPath id="185bd254ac"><path d="M 755 287 L 1187 287 L 1187 380 L 755 380 Z M 755 287 " clip-rule="nonzero"/></clipPath><clipPath id="60630b3c02"><path d="M 66.167969 0.558594 L 1375.242188 0.558594 C 1375.242188 0.558594 1402.667969 1.472656 1405.410156 14.269531 C 1408.152344 27.066406 1392.609375 62.71875 1390.78125 71.859375 C 1388.953125 81.003906 1372.5 98.371094 1374.328125 105.683594 C 1376.15625 112.996094 1391.699219 121.226562 1391.699219 121.226562 C 1391.699219 121.226562 1368.84375 135.855469 1357.871094 143.167969 C 1346.902344 150.480469 1315.824219 166.933594 1315.824219 166.933594 L 1378.898438 178.816406 C 1378.898438 178.816406 1388.039062 210.8125 1384.382812 222.699219 C 1380.726562 234.582031 1367.929688 261.089844 1369.757812 267.492188 C 1371.585938 273.890625 1356.960938 319.597656 1349.644531 319.597656 C 1342.332031 319.597656 1279.253906 325.996094 1279.253906 325.996094 L 1325.875 349.765625 L 1393.527344 380.847656 L 1390.78125 425.640625 L 1370.671875 475.921875 L 24.117188 475.921875 L 4.003906 393.644531 L 50.628906 360.738281 L 80.792969 346.113281 L 16.804688 327.828125 L 20.460938 244.640625 L 96.335938 222.699219 L 76.222656 215.386719 L 0.347656 148.652344 L 24.117188 68.207031 L 29.601562 5.128906 L 66.164062 0.558594 Z M 66.167969 0.558594 " clip-rule="evenodd"/></clipPath><clipPath id="daa4d0cdff"><path d="M 819 302 L 1094 302 L 1094 362 L 819 362 Z M 819 302 " clip-rule="nonzero"/></clipPath><clipPath id="36614bea4e"><path d="M 66.167969 0.558594 L 1375.242188 0.558594 C 1375.242188 0.558594 1402.667969 1.472656 1405.410156 14.269531 C 1408.152344 27.066406 1392.609375 62.71875 1390.78125 71.859375 C 1388.953125 81.003906 1372.5 98.371094 1374.328125 105.683594 C 1376.15625 112.996094 1391.699219 121.226562 1391.699219 121.226562 C 1391.699219 121.226562 1368.84375 135.855469 1357.871094 143.167969 C 1346.902344 150.480469 1315.824219 166.933594 1315.824219 166.933594 L 1378.898438 178.816406 C 1378.898438 178.816406 1388.039062 210.8125 1384.382812 222.699219 C 1380.726562 234.582031 1367.929688 261.089844 1369.757812 267.492188 C 1371.585938 273.890625 1356.960938 319.597656 1349.644531 319.597656 C 1342.332031 319.597656 1279.253906 325.996094 1279.253906 325.996094 L 1325.875 349.765625 L 1393.527344 380.847656 L 1390.78125 425.640625 L 1370.671875 475.921875 L 24.117188 475.921875 L 4.003906 393.644531 L 50.628906 360.738281 L 80.792969 346.113281 L 16.804688 327.828125 L 20.460938 244.640625 L 96.335938 222.699219 L 76.222656 215.386719 L 0.347656 148.652344 L 24.117188 68.207031 L 29.601562 5.128906 L 66.164062 0.558594 Z M 66.167969 0.558594 " clip-rule="evenodd"/></clipPath><clipPath id="4573a54eba"><path d="M 882 315 L 1013 315 L 1013 343 L 882 343 Z M 882 315 " clip-rule="nonzero"/></clipPath><clipPath id="eaaa9adb8c"><path d="M 66.167969 0.558594 L 1375.242188 0.558594 C 1375.242188 0.558594 1402.667969 1.472656 1405.410156 14.269531 C 1408.152344 27.066406 1392.609375 62.71875 1390.78125 71.859375 C 1388.953125 81.003906 1372.5 98.371094 1374.328125 105.683594 C 1376.15625 112.996094 1391.699219 121.226562 1391.699219 121.226562 C 1391.699219 121.226562 1368.84375 135.855469 1357.871094 143.167969 C 1346.902344 150.480469 1315.824219 166.933594 1315.824219 166.933594 L 1378.898438 178.816406 C 1378.898438 178.816406 1388.039062 210.8125 1384.382812 222.699219 C 1380.726562 234.582031 1367.929688 261.089844 1369.757812 267.492188 C 1371.585938 273.890625 1356.960938 319.597656 1349.644531 319.597656 C 1342.332031 319.597656 1279.253906 325.996094 1279.253906 325.996094 L 1325.875 349.765625 L 1393.527344 380.847656 L 1390.78125 425.640625 L 1370.671875 475.921875 L 24.117188 475.921875 L 4.003906 393.644531 L 50.628906 360.738281 L 80.792969 346.113281 L 16.804688 327.828125 L 20.460938 244.640625 L 96.335938 222.699219 L 76.222656 215.386719 L 0.347656 148.652344 L 24.117188 68.207031 L 29.601562 5.128906 L 66.164062 0.558594 Z M 66.167969 0.558594 " clip-rule="evenodd"/></clipPath><clipPath id="570fce1424"><path d="M 0.347656 255 L 1405.8125 255 L 1405.8125 475.945312 L 0.347656 475.945312 Z M 0.347656 255 " clip-rule="nonzero"/></clipPath><clipPath id="2519d722db"><path d="M 66.167969 0.558594 L 1375.242188 0.558594 C 1375.242188 0.558594 1402.667969 1.472656 1405.410156 14.269531 C 1408.152344 27.066406 1392.609375 62.71875 1390.78125 71.859375 C 1388.953125 81.003906 1372.5 98.371094 1374.328125 105.683594 C 1376.15625 112.996094 1391.699219 121.226562 1391.699219 121.226562 C 1391.699219 121.226562 1368.84375 135.855469 1357.871094 143.167969 C 1346.902344 150.480469 1315.824219 166.933594 1315.824219 166.933594 L 1378.898438 178.816406 C 1378.898438 178.816406 1388.039062 210.8125 1384.382812 222.699219 C 1380.726562 234.582031 1367.929688 261.089844 1369.757812 267.492188 C 1371.585938 273.890625 1356.960938 319.597656 1349.644531 319.597656 C 1342.332031 319.597656 1279.253906 325.996094 1279.253906 325.996094 L 1325.875 349.765625 L 1393.527344 380.847656 L 1390.78125 425.640625 L 1370.671875 475.921875 L 24.117188 475.921875 L 4.003906 393.644531 L 50.628906 360.738281 L 80.792969 346.113281 L 16.804688 327.828125 L 20.460938 244.640625 L 96.335938 222.699219 L 76.222656 215.386719 L 0.347656 148.652344 L 24.117188 68.207031 L 29.601562 5.128906 L 66.164062 0.558594 Z M 66.167969 0.558594 " clip-rule="evenodd"/></clipPath><clipPath id="6280533669"><path d="M 0.347656 187 L 1405.8125 187 L 1405.8125 252 L 0.347656 252 Z M 0.347656 187 " clip-rule="nonzero"/></clipPath><clipPath id="707332417a"><path d="M 66.167969 0.558594 L 1375.242188 0.558594 C 1375.242188 0.558594 1402.667969 1.472656 1405.410156 14.269531 C 1408.152344 27.066406 1392.609375 62.71875 1390.78125 71.859375 C 1388.953125 81.003906 1372.5 98.371094 1374.328125 105.683594 C 1376.15625 112.996094 1391.699219 121.226562 1391.699219 121.226562 C 1391.699219 121.226562 1368.84375 135.855469 1357.871094 143.167969 C 1346.902344 150.480469 1315.824219 166.933594 1315.824219 166.933594 L 1378.898438 178.816406 C 1378.898438 178.816406 1388.039062 210.8125 1384.382812 222.699219 C 1380.726562 234.582031 1367.929688 261.089844 1369.757812 267.492188 C 1371.585938 273.890625 1356.960938 319.597656 1349.644531 319.597656 C 1342.332031 319.597656 1279.253906 325.996094 1279.253906 325.996094 L 1325.875 349.765625 L 1393.527344 380.847656 L 1390.78125 425.640625 L 1370.671875 475.921875 L 24.117188 475.921875 L 4.003906 393.644531 L 50.628906 360.738281 L 80.792969 346.113281 L 16.804688 327.828125 L 20.460938 244.640625 L 96.335938 222.699219 L 76.222656 215.386719 L 0.347656 148.652344 L 24.117188 68.207031 L 29.601562 5.128906 L 66.164062 0.558594 Z M 66.167969 0.558594 " clip-rule="evenodd"/></clipPath><clipPath id="80e59f1d8c"><path d="M 0.347656 219 L 1405.8125 219 L 1405.8125 308 L 0.347656 308 Z M 0.347656 219 " clip-rule="nonzero"/></clipPath><clipPath id="e417f02d52"><path d="M 66.167969 0.558594 L 1375.242188 0.558594 C 1375.242188 0.558594 1402.667969 1.472656 1405.410156 14.269531 C 1408.152344 27.066406 1392.609375 62.71875 1390.78125 71.859375 C 1388.953125 81.003906 1372.5 98.371094 1374.328125 105.683594 C 1376.15625 112.996094 1391.699219 121.226562 1391.699219 121.226562 C 1391.699219 121.226562 1368.84375 135.855469 1357.871094 143.167969 C 1346.902344 150.480469 1315.824219 166.933594 1315.824219 166.933594 L 1378.898438 178.816406 C 1378.898438 178.816406 1388.039062 210.8125 1384.382812 222.699219 C 1380.726562 234.582031 1367.929688 261.089844 1369.757812 267.492188 C 1371.585938 273.890625 1356.960938 319.597656 1349.644531 319.597656 C 1342.332031 319.597656 1279.253906 325.996094 1279.253906 325.996094 L 1325.875 349.765625 L 1393.527344 380.847656 L 1390.78125 425.640625 L 1370.671875 475.921875 L 24.117188 475.921875 L 4.003906 393.644531 L 50.628906 360.738281 L 80.792969 346.113281 L 16.804688 327.828125 L 20.460938 244.640625 L 96.335938 222.699219 L 76.222656 215.386719 L 0.347656 148.652344 L 24.117188 68.207031 L 29.601562 5.128906 L 66.164062 0.558594 Z M 66.167969 0.558594 " clip-rule="evenodd"/></clipPath></defs><g clip-path="url(#d09b128615)"><path fill="#51342a" d="M 97.667969 40.726562 L 1406.742188 40.726562 C 1406.742188 40.726562 1434.167969 41.640625 1436.910156 54.4375 C 1439.65625 67.234375 1424.113281 102.886719 1422.285156 112.027344 C 1420.457031 121.171875 1404 138.542969 1405.828125 145.855469 C 1407.660156 153.167969 1423.199219 161.394531 1423.199219 161.394531 C 1423.199219 161.394531 1400.34375 176.023438 1389.375 183.335938 C 1378.40625 190.648438 1347.324219 207.101562 1347.324219 207.101562 L 1410.402344 218.988281 C 1410.402344 218.988281 1419.539062 250.984375 1415.886719 262.867188 C 1412.230469 274.75 1399.433594 301.257812 1401.261719 307.660156 C 1403.089844 314.058594 1388.460938 359.765625 1381.148438 359.765625 C 1373.832031 359.765625 1310.757812 366.167969 1310.757812 366.167969 L 1357.378906 389.933594 L 1425.027344 421.015625 L 1422.285156 465.808594 L 1402.171875 516.089844 L 55.617188 516.089844 L 35.507812 433.816406 L 82.128906 400.90625 L 112.296875 386.28125 L 48.304688 367.996094 L 51.960938 284.808594 L 127.835938 262.867188 L 107.726562 255.554688 L 31.851562 188.820312 L 55.617188 108.375 L 61.105469 45.296875 Z M 97.667969 40.726562 " fill-opacity="1" fill-rule="evenodd"/></g><g clip-path="url(#0f7d2f7981)"><path fill="#86573a" d="M 66.167969 0.558594 L 1375.242188 0.558594 C 1375.242188 0.558594 1402.667969 1.472656 1405.410156 14.269531 C 1408.152344 27.066406 1392.609375 62.71875 1390.78125 71.859375 C 1388.953125 81.003906 1372.5 98.371094 1374.328125 105.683594 C 1376.15625 112.996094 1391.699219 121.226562 1391.699219 121.226562 C 1391.699219 121.226562 1368.84375 135.855469 1357.871094 143.167969 C 1346.902344 150.480469 1315.824219 166.933594 1315.824219 166.933594 L 1378.898438 178.816406 C 1378.898438 178.816406 1388.039062 210.8125 1384.382812 222.699219 C 1380.726562 234.582031 1367.929688 261.089844 1369.757812 267.492188 C 1371.585938 273.890625 1356.960938 319.597656 1349.644531 319.597656 C 1342.332031 319.597656 1279.253906 325.996094 1279.253906 325.996094 L 1325.875 349.765625 L 1393.527344 380.847656 L 1390.78125 425.640625 L 1370.671875 475.921875 L 24.117188 475.921875 L 4.003906 393.644531 L 50.628906 360.738281 L 80.792969 346.113281 L 16.804688 327.828125 L 20.460938 244.640625 L 96.335938 222.699219 L 76.222656 215.386719 L 0.347656 148.652344 L 24.117188 68.207031 L 29.601562 5.128906 L 66.164062 0.558594 Z M 66.167969 0.558594 " fill-opacity="1" fill-rule="evenodd"/></g><g clip-path="url(#4a41ca1450)"><g clip-path="url(#eb5f1aa710)"><path fill="#51342a" d="M 242.550781 -67.804688 C 263.582031 -63.816406 500.40625 10.9375 499.683594 14.671875 C 493.632812 45.894531 181.316406 103.566406 124.703125 93.78125 C 123.667969 93.601562 -163.699219 24.363281 -64.78125 -13.847656 C 12.085938 -43.539062 153.542969 -81.847656 234.589844 -69.058594 Z M 154.800781 -65.15625 C 129.757812 -62.246094 -124.613281 -11.972656 -72.507812 12.933594 C 149.042969 118.816406 232 102.128906 455.433594 31.394531 C 552.144531 0.78125 433.449219 7.578125 298.960938 -45.9375 C 251.546875 -64.800781 205.179688 -69.128906 154.800781 -65.15625 Z M 154.800781 -65.15625 " fill-opacity="1" fill-rule="nonzero"/></g></g><g clip-path="url(#7df62ee019)"><g clip-path="url(#6d23cfae0c)"><path fill="#51342a" d="M 221.167969 -47.03125 C 244.753906 -43.589844 420.925781 7.214844 407.433594 17.722656 C 360.054688 54.636719 165.578125 81.445312 112.824219 67.757812 C 82.320312 59.84375 -88.234375 16.746094 13.894531 -14.976562 C 80.910156 -35.796875 150.335938 -55 221.167969 -47.03125 Z M 159.429688 -41.859375 C 135.933594 -40.042969 -57.238281 -13.0625 -2.761719 14.054688 C 153.320312 91.761719 247.101562 75.355469 405.019531 12.523438 C 405.863281 12.1875 281.164062 -27.09375 244.199219 -36.679688 C 215.390625 -44.148438 188.746094 -43.84375 159.429688 -41.859375 Z M 159.429688 -41.859375 " fill-opacity="1" fill-rule="nonzero"/></g></g><g clip-path="url(#ce68a1cd05)"><g clip-path="url(#71e2a986b2)"><path fill="#51342a" d="M 177.140625 -25.464844 C 177.75 -25.511719 380.898438 -3.996094 300.199219 23.5 C 219.023438 51.15625 117.761719 72.960938 45.238281 10.613281 C 18.597656 -12.289062 160.121094 -23.914062 177.140625 -25.464844 Z M 160.878906 -18.238281 C 82.121094 -14.480469 -22.25 0.558594 132.6875 42.6875 C 154.347656 48.582031 377.28125 23.304688 290.335938 5.515625 C 219.472656 -8.984375 243.90625 -23.160156 160.878906 -18.238281 Z M 160.878906 -18.238281 " fill-opacity="1" fill-rule="nonzero"/></g></g><g clip-path="url(#a55ca066a7)"><g clip-path="url(#42163c5873)"><path fill="#51342a" d="M 172.191406 -3.675781 C 218.765625 -19.535156 278.519531 26.808594 168.257812 31.765625 C 154.421875 32.386719 48.910156 -5.257812 160.441406 -0.371094 C 163.46875 -0.242188 169.3125 -2.640625 172.191406 -3.675781 Z M 160.269531 5.484375 C 67.363281 -2.230469 153.203125 40.300781 224.113281 9.613281 C 158.6875 -2.699219 206.191406 4.378906 160.269531 5.484375 Z M 160.269531 5.484375 " fill-opacity="1" fill-rule="nonzero"/></g></g><g clip-path="url(#ba23fe4246)"><g clip-path="url(#47cdb67c16)"><path fill="#51342a" d="M 1511.417969 -94.699219 C 1300.492188 -51.234375 1318.199219 53.59375 1027.9375 -47.761719 C 819.382812 -120.585938 696.597656 -114.070312 487.113281 -137.871094 C 215.792969 -168.691406 71.214844 -167.308594 -216.804688 -163.917969 C -216.804688 -192.414062 252.265625 -166.867188 358.273438 -155.773438 C 536.640625 -137.105469 846.4375 -120.851562 992.835938 -66.613281 C 1366.105469 71.675781 1309.402344 -99.261719 1606.835938 -105.136719 C 1606.835938 -94.625 1528.183594 -96.886719 1511.417969 -94.699219 Z M 40.121094 -135.09375 C 245.761719 -133.648438 447.289062 -70.089844 681.71875 -73.496094 C 1174.320312 -80.65625 934.847656 153.035156 1485.464844 -36.039062 C 1522.917969 -48.902344 1709.125 -73.152344 1540.238281 -43.761719 C 1344.640625 -9.726562 1230.019531 111.042969 1023.585938 -2.074219 C 854.578125 -94.683594 610.707031 -57.554688 399.605469 -86.078125 C 193.433594 -113.9375 142.84375 -131.335938 -63.6875 -120.855469 C -266.980469 -110.542969 -277.523438 -115.898438 -64.042969 -126.695312 C -28.382812 -128.503906 4.804688 -132.019531 40.121094 -135.09375 Z M 1294.410156 60.367188 C 974.410156 105.246094 976.316406 -4.046875 682.574219 -26.617188 C 496.855469 -40.890625 332.09375 -74.410156 155.964844 -87.578125 C 86.441406 -92.777344 -216.804688 -15.082031 -216.804688 -26.675781 C 171.835938 -96.554688 51.039062 -117.421875 454.691406 -52.652344 C 683.683594 -15.910156 719.617188 -56.007812 958.636719 29.074219 C 1172.78125 105.304688 1390.347656 48.449219 1606.835938 -14.382812 C 1606.835938 7.058594 1321.339844 55.90625 1294.410156 60.367188 Z M -179.570312 14.757812 C 83.515625 51.699219 -45.433594 190.640625 469.929688 62.394531 C 836.167969 -28.742188 796.457031 35.152344 1123.527344 87.9375 C 1171.429688 95.671875 1678.707031 61.417969 1596.617188 72.886719 C 1448.890625 93.523438 1177.078125 109.898438 1036.820312 74.691406 C 533.527344 -51.636719 597.554688 96.28125 189.1875 117.777344 C 0.332031 127.71875 -79.640625 12.722656 -216.804688 20.121094 C -216.804688 8.535156 -189.054688 13.949219 -179.570312 14.757812 Z M 1564.605469 106.953125 C 1280.785156 140.058594 1102.109375 135.398438 827.066406 73.183594 C 756.734375 57.28125 512.472656 97.710938 434.851562 119.597656 C 251.023438 171.421875 62.351562 150.09375 -117.035156 95.722656 C -136.300781 89.882812 -300.847656 60.988281 -162.910156 79.777344 C -32.976562 97.472656 -32.457031 134.328125 161.011719 138.71875 C 387.996094 143.871094 328.417969 130.253906 528.078125 87.132812 C 575.007812 76.996094 815.167969 62.648438 848.785156 73.214844 C 1086.488281 147.929688 1344.339844 117.011719 1587.636719 98.84375 C 1645.214844 94.546875 1577.085938 105.550781 1564.605469 106.953125 Z M -14.921875 148.171875 C 56.742188 176.183594 354.480469 186.867188 459.914062 145.902344 C 534.132812 117.0625 810.015625 76.324219 890.554688 117.945312 C 981.527344 164.960938 1446.105469 143.929688 1577.003906 130.320312 C 1682.101562 119.394531 1462.121094 152.171875 1424.699219 151.726562 C 1299.265625 150.25 979.671875 168.050781 872.269531 114.902344 C 800.746094 79.511719 519.765625 136.015625 430.386719 161.894531 C 304.898438 198.226562 68.84375 179.882812 -58.808594 138.132812 C -81.339844 130.761719 -336.464844 90.425781 -159.398438 110.519531 C -105.34375 116.652344 -64.769531 128.34375 -14.921875 148.171875 Z M 1543.550781 170.203125 C 1316.835938 177.875 1005.835938 199.390625 788.292969 158.4375 C 716.707031 144.964844 382.171875 237.175781 161.199219 198.699219 C 20.324219 174.167969 -87.203125 199.753906 -216.804688 186.195312 C -216.804688 175.660156 113.542969 184.457031 162.175781 192.925781 C 407.234375 235.59375 562.699219 157.980469 781.433594 152.292969 C 887.316406 149.539062 1047.242188 179.277344 1183.113281 178.046875 C 1244.117188 177.492188 1606.835938 153.976562 1606.835938 168.109375 C 1585.734375 168.746094 1564.644531 169.476562 1543.550781 170.203125 Z M 1543.550781 170.203125 " fill-opacity="1" fill-rule="nonzero"/></g></g><g clip-path="url(#19e8c81add)"><g clip-path="url(#a80207e7b6)"><path fill="#51342a" d="M 1020.1875 274.511719 C 1041.222656 278.5 1278.042969 353.253906 1277.324219 356.984375 C 1273.257812 377.996094 886.574219 406.75 826.257812 396.109375 C 538.570312 345.363281 784.519531 297.9375 903.503906 275.410156 C 943.347656 267.871094 980.300781 268.21875 1020.1875 274.511719 Z M 932.441406 277.160156 C 909.136719 279.867188 645.089844 330.210938 707.941406 356.273438 C 869.964844 423.46875 1035.335938 381.890625 1203.671875 369.675781 C 1367.707031 357.773438 1187.804688 340.628906 1076.601562 296.378906 C 1029.183594 277.511719 982.816406 273.1875 932.441406 277.160156 Z M 932.441406 277.160156 " fill-opacity="1" fill-rule="nonzero"/></g></g><g clip-path="url(#185bd254ac)"><g clip-path="url(#60630b3c02)"><path fill="#51342a" d="M 998.746094 288.605469 C 1022.316406 293.074219 1194.761719 344.636719 1186.113281 353.53125 C 1167 373.183594 885.421875 385.703125 841.980469 376.628906 C 593.082031 324.628906 957.605469 282.109375 998.746094 288.605469 Z M 934.3125 292.09375 C 842.25 302.78125 632.496094 348.589844 880.449219 377.019531 C 887.621094 377.84375 1272.460938 364.824219 1156.234375 342.859375 C 1062.597656 325.160156 1027.746094 284.726562 934.3125 292.09375 Z M 934.3125 292.09375 " fill-opacity="1" fill-rule="nonzero"/></g></g><g clip-path="url(#daa4d0cdff)"><g clip-path="url(#36614bea4e)"><path fill="#51342a" d="M 977.300781 302.699219 C 1007.3125 308.390625 1163.167969 346.445312 1056.378906 353.421875 C 1039.75 354.511719 808.734375 379.898438 819.796875 337.074219 C 824.285156 319.699219 944.457031 297.824219 977.300781 302.699219 Z M 936.183594 307.027344 C 738.96875 329.949219 839.167969 365.957031 996.976562 351.5 C 1121.035156 340.140625 1122.851562 354.707031 995.070312 313.109375 C 975.296875 306.671875 956.738281 305.402344 936.183594 307.027344 Z M 936.183594 307.027344 " fill-opacity="1" fill-rule="nonzero"/></g></g><g clip-path="url(#4573a54eba)"><g clip-path="url(#eaaa9adb8c)"><path fill="#51342a" d="M 955.859375 316.792969 C 1155.90625 354.683594 743.914062 346.855469 933.527344 316.644531 C 941.175781 315.421875 948.230469 315.589844 955.859375 316.792969 Z M 938.050781 321.957031 C 794.289062 338.734375 1095.625 343.273438 953.347656 322.320312 C 947.992188 321.535156 943.414062 321.53125 938.050781 321.957031 Z M 938.050781 321.957031 " fill-opacity="1" fill-rule="nonzero"/></g></g><g clip-path="url(#570fce1424)"><g clip-path="url(#2519d722db)"><path fill="#51342a" d="M 1220.425781 310.535156 C 778.914062 187.0625 884.429688 319.292969 497.46875 331.441406 C 349.230469 336.097656 218.15625 287.761719 46.96875 284.335938 C 29.964844 283.992188 -216.804688 280.792969 -216.804688 265.363281 C -19.925781 274.167969 125.171875 274.339844 320.777344 311.082031 C 692.136719 380.84375 785.203125 180.703125 1159.726562 287.265625 C 1331.132812 336.03125 1426.21875 330.4375 1606.835938 314.667969 C 1606.835938 344.132812 1278.019531 326.433594 1220.425781 310.535156 Z M -126.328125 309.75 C 173.546875 301.042969 129.59375 325.359375 361.355469 356.882812 C 502.203125 376.039062 570.890625 328.535156 726.34375 380.667969 C 972.441406 463.195312 1203.1875 375.394531 1473.34375 381.976562 C 1535.414062 383.488281 1702.976562 380.753906 1526.167969 387.308594 C 1358.140625 393.535156 1311.261719 383.203125 1127.308594 411.75 C 962.703125 437.296875 835.472656 431.226562 680.667969 370.105469 C 681.515625 370.429688 534.476562 363.269531 469.773438 365.808594 C 300.304688 372.453125 186.789062 310.1875 -24.3125 313.089844 C -25.335938 313.101562 -347.835938 314.472656 -162.070312 310.632812 C -150.15625 310.390625 -138.242188 310.09375 -126.328125 309.75 Z M 1512.855469 417.125 C 1251.230469 397.714844 1113.113281 454.503906 876.992188 453.402344 C 785.320312 452.972656 664.105469 413.195312 532.566406 408.425781 C 382.800781 402.992188 86.585938 349.863281 -44.960938 370.445312 C -101.222656 379.25 -354.378906 384.042969 -122.953125 372.613281 C 52.160156 363.96875 -10.84375 346.78125 170.683594 372.757812 C 386.433594 403.632812 573.707031 391.890625 798.375 438.460938 C 963.96875 472.785156 1247.292969 393.265625 1469.664062 408.152344 C 1532.613281 412.371094 1701.980469 431.402344 1526.027344 418.117188 Z M -136.054688 410.367188 C 87.183594 394.664062 94.503906 389.21875 296.828125 431.191406 C 411.921875 455.066406 604.996094 426.222656 777.148438 458.074219 C 958.574219 491.640625 1288.558594 451.871094 1501.539062 456.523438 C 1849.164062 464.113281 1230.65625 464.847656 1160.984375 469.449219 C 895.148438 487.007812 665.941406 441.804688 400.710938 441.636719 C 233.707031 441.523438 186.101562 395.296875 -31.03125 409.0625 C -42.109375 409.765625 -216.804688 427.980469 -216.804688 416.082031 C -189.886719 414.1875 -162.96875 412.273438 -136.054688 410.367188 Z M 1326.308594 496.960938 C 1096.246094 503.53125 944.320312 533.046875 708.019531 495.472656 C 519.273438 465.460938 315.066406 478.253906 119.058594 451.054688 C -21.003906 431.625 -83.113281 473.109375 -216.804688 497.101562 C -216.804688 482.476562 28.742188 435.449219 81.785156 440.613281 C 204.335938 452.539062 236.574219 459.449219 364.152344 462.5 C 667.695312 469.761719 868.898438 533.714844 1187.300781 498.429688 C 1235.039062 493.140625 1606.835938 479.175781 1606.835938 495.796875 C 1513.164062 494.621094 1419.972656 494.878906 1326.308594 496.960938 Z M -181.984375 524.859375 C -4.582031 511.972656 -15.730469 462.457031 168.742188 501.742188 C 318.5 533.636719 583.585938 499.933594 777.058594 525.527344 C 1058.09375 562.703125 1256.097656 535.203125 1529.683594 536.214844 C 1560.175781 536.328125 1670.519531 546.347656 1554.773438 542.464844 C 1296.8125 533.816406 992.71875 580.785156 729.523438 523.816406 C 575.179688 490.410156 343.375 544.207031 105.367188 491.667969 C 48.757812 479.171875 -216.804688 553.578125 -216.804688 525.980469 C -205.09375 525.21875 -193.738281 525.148438 -181.984375 524.859375 Z M 1516.507812 569.960938 C 1322.148438 582.410156 1099.007812 600.746094 909 580.984375 C 678.921875 557.0625 467.78125 577.617188 232.273438 559.132812 C 16.257812 542.183594 -23.890625 549.019531 -216.804688 572.523438 C -216.804688 546.582031 85.445312 543.503906 99.230469 544.203125 C 329.117188 555.839844 460.269531 566.300781 692.234375 562.070312 C 896.613281 558.339844 989.757812 599.925781 1222.699219 577.40625 C 1272.558594 572.582031 1606.835938 548.207031 1606.835938 577.832031 C 1573.789062 571.820312 1550.207031 567.160156 1516.507812 569.960938 Z M 1516.507812 569.960938 " fill-opacity="1" fill-rule="nonzero"/></g></g><g clip-path="url(#6280533669)"><g clip-path="url(#707332417a)"><path fill="#51342a" d="M -108.945312 188.578125 C 130.03125 200.449219 292.382812 249.421875 544.34375 232.957031 C 931.71875 207.640625 1083.269531 188.386719 1441.714844 237.554688 C 1459.292969 239.964844 1723.808594 247.601562 1556.019531 251.101562 C 1401.933594 254.316406 1234.546875 204.300781 1034.847656 211.765625 C 658.957031 225.828125 438.460938 263.144531 72.953125 213.257812 C 24.429688 206.632812 -405.246094 183.710938 -108.945312 188.578125 Z M -108.945312 188.578125 " fill-opacity="1" fill-rule="nonzero"/></g></g><g clip-path="url(#80e59f1d8c)"><g clip-path="url(#e417f02d52)"><path fill="#51342a" d="M 1405.980469 290.808594 C 1037.691406 251.695312 1152.496094 197.96875 720.3125 255.71875 C 531.175781 280.992188 531.757812 337.355469 327.191406 288.847656 C 153.257812 247.601562 -40.574219 226.265625 -216.804688 233.214844 C -216.804688 184.742188 316.425781 280.320312 379.804688 296.511719 C 471.4375 319.921875 633.253906 261.5625 752.398438 245.5 C 1140.160156 193.226562 1053.621094 244.175781 1386.039062 282.863281 C 1420.082031 286.820312 1759.3125 281.316406 1531.8125 291.789062 C 1487.917969 293.808594 1449.832031 293.867188 1405.980469 290.808594 Z M 1405.980469 290.808594 " fill-opacity="1" fill-rule="nonzero"/></g></g></svg>